# xmcd
#
# Track frame offsets:
# 182
# 11285
# 23697
# 38915
# 53555
# 70217
# 85300
# 102612
# 117237
# 131312
#
# Disc length: 1915 seconds
#
#
# Revision: 0
# Processed by: cddbd v1.5.1PL2 Copyright (c) Steve Scherf et al.
# Submitted via: FreeRIP 2.943 
#
DISCID=7707790a
DTITLE=Sawyer Brown - Shakin'
DYEAR=1985
DGENRE=Country
TTITLE0=Where your Heart Goes (Woo Woo Woo)
TTITLE1=The Secretary's Song
TTITLE2=Heart Don't Fall Now
TTITLE3=Shakin'
TTITLE4=Sharin' the moonshine
TTITLE5=Betty's bein' bad
TTITLE6=I Believe
TTITLE7=Lonely Girls
TTITLE8=That's a no no
TTITLE9=Billy does yhour bulldog bite
EXTD=
EXTT0=
EXTT1=
EXTT2=
EXTT3=
EXTT4=
EXTT5=
EXTT6=
EXTT7=
EXTT8=
EXTT9=
PLAYORDER=
